<?xml version="1.0" standalone="no"?>
<!DOCTYPE svg PUBLIC "-//W3C//DTD SVG 1.1//EN" "http://www.w3.org/Graphics/SVG/1.1/DTD/svg11.dtd" >
<svg xmlns="http://www.w3.org/2000/svg">
<metadata></metadata>
<defs>
<font id="starcraftnormal" horiz-adv-x="1178" >
<font-face units-per-em="2048" ascent="1638" descent="-410" />
<missing-glyph horiz-adv-x="828" />
<glyph horiz-adv-x="2048" />
<glyph horiz-adv-x="2048" />
<glyph unicode="&#xd;" horiz-adv-x="828" />
<glyph unicode=" "  horiz-adv-x="828" />
<glyph unicode="&#x09;" horiz-adv-x="828" />
<glyph unicode="&#xa0;" horiz-adv-x="828" />
<glyph unicode="!" horiz-adv-x="979" d="M0 119l119 121h240l121 -121l-121 -119h-240zM0 719v719h480v-719l-121 -120h-240z" />
<glyph unicode="&#x22;" horiz-adv-x="1549" d="M0 1318l119 120h240l121 -120l-240 -360zM599 1318l120 120h239l121 -120l-240 -360z" />
<glyph unicode="#" horiz-adv-x="1165" d="M0 240v240h156v119h-156v240h156v129h240v-129h180v129h239v-129h143v-240h-143v-119h143v-240h-143v-96h-239v96h-180v-96h-240v96h-156zM396 480h180v119h-180v-119z" />
<glyph unicode="$" horiz-adv-x="1607" d="M0 119l240 240h527q64 0 101 66q16 28 17 57q0 104 -166 117l-263 21q-286 23 -392 185q-64 97 -64 274l119 239h240v120h480v-120h359l-240 -239h-478q-118 -27 -118 -130q0 -110 118 -110h55q239 0 409 -75q254 -111 254 -405l-240 -240h-239v-119h-360v119h-359z" />
<glyph unicode="%" horiz-adv-x="1969" d="M0 0l1318 1438h360l-1319 -1438h-359zM119 1079q1 99 28 144q46 76 212 95q170 -19 214 -95q25 -42 26 -144q1 -64 -99 -96q-69 -22 -152 -22q-80 0 -142 22q-88 32 -87 96zM1079 359q1 101 28 145q46 76 211 95q170 -19 213 -95q26 -44 27 -145q1 -62 -101 -95 q-70 -22 -151 -22q-78 0 -140 22q-88 32 -87 95z" />
<glyph unicode="&#x26;" horiz-adv-x="1575" d="M0 119v1199h359v120h480v-120h359l-240 -239h-599v-240h599l-239 -240h-360v-240h839l-359 -240h-120v-119h-360v119h-359z" />
<glyph unicode="'" horiz-adv-x="950" d="M0 1318l119 120h240l121 -120l-240 -360z" />
<glyph unicode="(" horiz-adv-x="1205" d="M0 719q0 720 719 719v-240q-211 0 -294 -141q-66 -111 -66 -338t66 -337q84 -142 294 -142v-240q-719 0 -719 719z" />
<glyph unicode=")" horiz-adv-x="1128" d="M0 0v240q247 0 321 197q39 103 38 282q0 343 -155 434q-78 46 -204 45v240q719 0 719 -719t-719 -719z" />
<glyph unicode="*" horiz-adv-x="1213" d="M0 958l407 233v14l-407 233h240l167 -96v96h264v-96l168 96h240l-408 -235v-9l408 -236h-240l-168 96v-96h-264v96l-167 -96h-240z" />
<glyph unicode="+" horiz-adv-x="1141" d="M0 480v239h359v180h240v-180h359v-239h-359v-240h-240v240h-359z" />
<glyph unicode="," horiz-adv-x="695" d="M0 119l119 121h240l121 -121l-240 -359z" />
<glyph unicode="-" d="M0 480v239h958v-239h-958z" />
<glyph unicode="." horiz-adv-x="692" d="M0 119l119 121h240l121 -121l-121 -119h-240z" />
<glyph unicode="/" horiz-adv-x="1927" d="M0 0l1318 1438h360l-1319 -1438h-359z" />
<glyph unicode="0" horiz-adv-x="1648" d="M0 719q0 369 112 527q136 192 487 192q349 0 480 -176q119 -160 119 -543q0 -382 -120 -541q-135 -178 -479 -178q-349 0 -485 192q-114 160 -114 527zM359 719q0 -297 33 -378q41 -101 207 -101q169 0 210 103q30 77 30 376q0 199 -2 228q-13 160 -69 209 q-48 42 -169 42q-106 0 -157 -35q-59 -40 -71 -140q-12 -91 -12 -304z" />
<glyph unicode="1" horiz-adv-x="699" d="M-119 1198l238 240h361v-1319l-121 -359l-240 240v1079h-119z" />
<glyph unicode="2" horiz-adv-x="1882" d="M-359 1198l359 240h1198l240 -240h-1797zM0 0v240q0 156 172 268q80 53 310 145q253 102 344 157q187 114 253 269h359q-35 -307 -433 -461l-278 -110q-200 -95 -210 -172q0 -96 142 -96h659v-240h-1318z" />
<glyph unicode="3" horiz-adv-x="1782" d="M-359 1198l359 240h1079l239 -240h-1677zM0 0q329 54 384 66q200 42 285 80q171 78 170 213q-1 99 -27 145q-43 76 -213 95h-240l364 480h361l-206 -240q252 -23 300 -261q20 -96 20 -219q0 -281 -311 -339q-144 -27 -370 -27q-69 0 -131 1l-249 5q-62 1 -137 1z" />
<glyph unicode="4" horiz-adv-x="1659" d="M0 359l288 839h-288l359 240h360l-360 -1079h-359zM480 359l81 240h397v839h480v-1438h-480v359h-478z" />
<glyph unicode="5" horiz-adv-x="1610" d="M-359 1198l359 240h1438l-480 -240h-1317zM0 359q90 -97 308 -140q101 -20 200 -20q333 0 331 160q-1 99 -27 145q-43 76 -213 95h-599v480h359v-240h480q208 0 294 -144q66 -112 65 -336q0 -186 -231 -283q-176 -74 -391 -74q-337 0 -495 161q-81 82 -81 196z" />
<glyph unicode="6" horiz-adv-x="1613" d="M0 359v720h359v-240h480q187 0 275 -153q84 -147 84 -327q0 -186 -231 -283q-176 -74 -391 -74q-337 0 -495 161q-81 81 -81 196zM0 1198l359 240h1079l-480 -240h-958zM359 359q0 -63 88 -93q61 -21 140 -21q139 0 216 52q37 26 36 62q-2 102 -27 145q-43 76 -213 95 h-240v-240z" />
<glyph unicode="7" horiz-adv-x="1681" d="M-359 1198l359 240h1438l-240 -240h-1079l-167 -119h-192zM359 0v599l360 480h360l-240 -300v-539l-240 -480z" />
<glyph unicode="8" horiz-adv-x="1691" d="M0 359q0 220 110 360q-110 137 -110 360q0 229 293 317q132 40 283 40q353 0 533 -166q89 -82 89 -191q0 -228 -110 -360q110 -132 110 -360q0 -186 -231 -283q-176 -74 -391 -74q-337 0 -495 161q-81 82 -81 196zM359 359q-1 -63 88 -93q62 -21 140 -21q139 0 216 52 q37 26 36 62q-2 102 -27 145q-43 76 -213 95q-166 -19 -212 -95q-27 -44 -28 -145zM359 1079q1 -99 28 -144q47 -78 212 -96q169 18 213 95q25 42 27 145q1 70 -129 103q-56 14 -123 14q-77 0 -140 -22q-89 -31 -88 -95z" />
<glyph unicode="9" horiz-adv-x="1687" d="M0 0q496 57 699 241q147 133 147 296q0 44 -7 62h-480q-283 0 -341 260q-18 77 -18 220q0 221 322 315q145 42 301 42q338 0 496 -160q80 -81 79 -197v-240q0 -15 1.5 -46.5t1.5 -47.5q0 -425 -314 -594q-280 -151 -887 -151zM359 1011q0 -116 82 -150q53 -22 158 -22 h240v240q0 115 -223 115q-76 0 -153 -24q-104 -32 -104 -91v-68z" />
<glyph unicode=":" horiz-adv-x="664" d="M0 119l119 121h240l121 -121l-121 -119h-240zM0 599l119 120h240l121 -120l-121 -119h-240z" />
<glyph unicode=";" horiz-adv-x="664" d="M0 119l119 121h240l121 -121l-240 -359zM0 599l119 120h240l121 -120l-121 -119h-240z" />
<glyph unicode="&#x3c;" horiz-adv-x="1152" d="M0 542l719 297h239v-120l-478 -182l478 -178v-119h-239z" />
<glyph unicode="=" horiz-adv-x="1141" d="M0 240v240h958v-240h-958zM0 599v240h958v-240h-958z" />
<glyph unicode="&#x3e;" horiz-adv-x="1111" d="M0 240v119l480 178l-480 182v120h240l718 -297l-718 -302h-240z" />
<glyph unicode="?" horiz-adv-x="1811" d="M-359 1198l359 240h1198q213 -48 213 -208q0 -214 -303 -462q-132 -108 -269 -169h-480l346 227q242 159 242 245q0 81 -228 127h-1078zM240 119l119 121h240l120 -121l-120 -119h-240z" />
<glyph unicode="@" horiz-adv-x="1852" d="M0 719q0 720 719 719q473 0 639 -221q81 -108 80 -259q0 -359 -359 -359h-360v240q87 -5 118 -5q249 0 242 124q-8 145 -117 201q-80 40 -243 39q-211 0 -294 -141q-66 -111 -66 -338t66 -337q84 -142 294 -142h239l480 -240h-719q-719 0 -719 719z" />
<glyph unicode="A" horiz-adv-x="1858" d="M0 0l359 1074h360l-158 -475h397l121 -240h-599l-121 -359h-359zM359 1198l480 240h359l480 -1438h-360q-131 364 -202 532q-154 373 -265 496q-91 101 -225 135q-53 14 -267 35z" />
<glyph unicode="B" horiz-adv-x="1937" d="M-359 1198l359 240h1198q238 -55 238 -295q0 -265 -247 -548l-201 143q94 149 93 245q0 215 -362 215h-1078zM0 0v1079h359v-839h360q112 0 195 24q129 36 129 122q0 162 -444 453q250 -109 499 -316q268 -224 268 -372q0 -110 -168 -151h-1198z" />
<glyph unicode="C" horiz-adv-x="1723" d="M0 839v240h359v-240q0 -286 104 -457q128 -212 395 -212q151 0 340 70q-315 -242 -578 -242q-195 0 -344 131q-132 116 -204 312.5t-72 397.5zM0 1198l359 240h1079l-240 -359l-240 119h-958z" />
<glyph unicode="D" horiz-adv-x="1837" d="M-359 1198l359 240h1198q160 -37 161 -240q0 -169 -110 -396q-207 -428 -548 -671q-185 -131 -342 -131h-359v1079h359v-839q349 177 513 469q75 133 75 245q0 198 -228 244h-1078z" />
<glyph unicode="E" horiz-adv-x="1563" d="M-359 1198l359 240h1438l-480 -240h-1317zM0 0v1079h359v-240h599l-359 -240h-240v-359h959l-479 -240h-839z" />
<glyph unicode="F" horiz-adv-x="1536" d="M-359 1198l359 240h1438l-480 -240h-1317zM0 0v1079h359v-240h599l-359 -240h-240v-599h-359z" />
<glyph unicode="G" horiz-adv-x="1782" d="M0 839v240h359v-240q0 -599 356 -599h4q160 1 210 173q23 80 29 306h360q-12 -311 -147 -500q-157 -219 -452 -219q-224 0 -389 109q-169 111 -252 316q-78 193 -78 414zM0 1198l359 240h1079l-240 -359l-240 119h-958z" />
<glyph unicode="H" horiz-adv-x="1659" d="M-359 1198l359 240h359v-1438h-359v1079zM480 359l81 240h397v839h480v-1438h-480v359h-478z" />
<glyph unicode="I" horiz-adv-x="993" d="M0 0v1438h480v-1198l-240 -480z" />
<glyph unicode="J" horiz-adv-x="1454" d="M0 0q157 50 305 181q175 154 175 299v958h478v-480q0 -248 -153 -477q-142 -213 -369 -347t-436 -134z" />
<glyph unicode="K" horiz-adv-x="1941" d="M-359 1198l359 240h364l-5 -1438h-359v1079zM480 359q317 124 432 399q46 112 46 200v480h480v-480q0 -260 -275 -478q-115 -91 -205 -121l480 -359h-599z" />
<glyph unicode="L" horiz-adv-x="1385" d="M-359 1198l359 240h359v-1198h959l-479 -240h-839v1198h-359z" />
<glyph unicode="M" horiz-adv-x="2138" d="M-359 1198l359 240h551l410 -930l237 571l240 -121l-480 -958l-359 719q-95 188 -126 243q-62 105 -116 145q-124 91 -275 91h-441zM0 0v1068h359v-1068h-359zM1318 1198l240 240h359v-1438h-359v1079z" />
<glyph unicode="N" horiz-adv-x="1658" d="M-359 1198l359 240h551l410 -930q68 -153 86 -153q32 0 32 167v916h359v-1438l-359 -240l-480 959q-95 190 -126 243q-62 105 -116 145q-124 91 -275 91h-441zM0 0v1068h359v-1068h-359z" />
<glyph unicode="O" horiz-adv-x="1847" d="M0 719q0 719 719 719t719 -717q0 -721 -719 -721t-719 719zM359 719q0 -227 66 -337q84 -142 294 -142q211 0 294 140q66 110 66 339t-66 339q-82 140 -294 140q-211 0 -294 -141q-66 -111 -66 -338z" />
<glyph unicode="P" horiz-adv-x="1923" d="M-359 1198l359 240h1198q281 -64 281 -391q0 -202 -109 -399q-115 -209 -291 -289h-480q283 184 386 381q48 91 48 173q0 224 -314 285h-1078zM0 0v1079h359v-1079h-359z" />
<glyph unicode="Q" horiz-adv-x="1857" d="M0 719q0 719 717 719h2q720 0 719 -719v-600l-168 -359l-191 240v719q0 229 -66 339q-83 140 -294 140t-294 -141q-66 -111 -66 -338t66 -337q84 -142 294 -142h239v-240h-239q-719 0 -719 719z" />
<glyph unicode="R" horiz-adv-x="1975" d="M-359 1198l359 240h1198q281 -64 281 -391q0 -202 -109 -399q-116 -209 -291 -289l479 -359h-600l-359 359q283 184 386 381q48 91 48 173q0 224 -314 285h-1078zM0 0v1079h359v-1079h-359z" />
<glyph unicode="S" horiz-adv-x="1899" d="M-359 0l446 384q49 -144 234 -144h458q149 0 149 69q0 108 -420 414q-170 118 -508 356h359q431 -249 727 -502q316 -270 316 -431q0 -104 -144 -146h-1617zM0 1198q0 111 64.5 175.5t175.5 64.5h1318l-240 -359l-211 119h-1107z" />
<glyph unicode="T" horiz-adv-x="1758" d="M-359 1198l359 240h1438l-120 -240h-1199l-167 -119h-192zM359 0v1079h480v-839l-240 -480z" />
<glyph unicode="U" horiz-adv-x="1645" d="M-359 1198l359 240h359v-719q0 -227 66 -337q84 -142 294 -142q169 0 209 103q30 77 30 376v719h480v-719q0 -719 -719 -719t-719 719v360z" />
<glyph unicode="V" horiz-adv-x="2052" d="M-240 1198l599 240l494 -983l465 983h360l-839 -1678q-181 406 -285 607q-187 363 -354 569q-206 255 -440 262z" />
<glyph unicode="W" horiz-adv-x="2771" d="M-240 1198l599 240l494 -983l465 983h360l-839 -1678q-181 406 -285 607q-187 363 -354 569q-206 255 -440 262zM1198 240l374 215l465 983h360l-839 -1678z" />
<glyph unicode="X" horiz-adv-x="2040" d="M-240 1198l599 240l480 -551l479 551h360l-621 -663q-39 -29 -39 -66q0 -31 39 -57q304 -311 591 -379q129 -30 269 -33l-599 -240l-479 540l-480 -540h-359l611 650q43 37 43 73t-36 54q-406 412 -858 421z" />
<glyph unicode="Y" horiz-adv-x="1964" d="M-240 1198l599 240l480 -551l479 551h360l-599 -659v-539l-240 -480l-240 240v779q-294 296 -577 378q-133 39 -262 41z" />
<glyph unicode="Z" horiz-adv-x="1872" d="M-359 1198l359 240h1438v-240h-1797zM0 167q0 215 444 535q308 221 635 377h359q-171 -117 -508 -356q-420 -307 -420 -414q0 -69 149 -69h659v-240h-1138q-180 46 -180 167z" />
<glyph unicode="[" horiz-adv-x="1191" d="M0 0v1079h359v-839h360v-240h-719zM0 1198v240h719v-240h-719z" />
<glyph unicode="\" horiz-adv-x="1658" d="M-119 1438h359l1318 -1438h-360z" />
<glyph unicode="]" horiz-adv-x="929" d="M0 0v240h359v839h360v-1079h-719zM0 1198v240h719v-240h-719z" />
<glyph unicode="^" horiz-adv-x="1297" d="M0 958l389 480h244l446 -480h-240l-322 346l-277 -346h-240z" />
<glyph unicode="_" d="M0 480v239h958v-239h-958z" />
<glyph unicode="`" horiz-adv-x="1011" d="M0 1318l119 120h240l121 -120v-360z" />
<glyph unicode="a" horiz-adv-x="1858" d="M0 0l359 1074h360l-158 -475h397l121 -240h-599l-121 -359h-359zM359 1198l480 240h359l480 -1438h-360q-131 364 -202 532q-154 373 -265 496q-91 101 -225 135q-53 14 -267 35z" />
<glyph unicode="b" horiz-adv-x="1607" d="M-359 1198l359 240h1198q238 -55 238 -295q0 -265 -247 -548l-201 143q94 149 93 245q0 215 -362 215h-1078zM0 0v1079h359v-839h360q112 0 195 24q129 36 129 122q0 162 -444 453q250 -109 499 -316q268 -224 268 -372q0 -110 -168 -151h-1198z" />
<glyph unicode="c" horiz-adv-x="1723" d="M0 839v240h359v-240q0 -286 104 -457q128 -212 395 -212q151 0 340 70q-315 -242 -578 -242q-195 0 -344 131q-132 116 -204 312.5t-72 397.5zM0 1198l359 240h1079l-240 -359l-240 119h-958z" />
<glyph unicode="d" horiz-adv-x="1506" d="M-359 1198l359 240h1198q160 -37 161 -240q0 -169 -110 -396q-207 -428 -548 -671q-185 -131 -342 -131h-359v1079h359v-839q349 177 513 469q75 133 75 245q0 198 -228 244h-1078z" />
<glyph unicode="e" horiz-adv-x="1563" d="M-359 1198l359 240h1438l-480 -240h-1317zM0 0v1079h359v-240h599l-359 -240h-240v-359h959l-479 -240h-839z" />
<glyph unicode="f" horiz-adv-x="1536" d="M-359 1198l359 240h1438l-480 -240h-1317zM0 0v1079h359v-240h599l-359 -240h-240v-599h-359z" />
<glyph unicode="g" horiz-adv-x="1485" d="M0 839v240h359v-240q0 -599 356 -599h4q160 1 210 173q23 80 29 306h360q-12 -311 -147 -500q-157 -219 -452 -219q-224 0 -389 109q-169 111 -252 316q-78 193 -78 414zM0 1198l359 240h1079l-240 -359l-240 119h-958z" />
<glyph unicode="h" horiz-adv-x="1659" d="M-359 1198l359 240h359v-1438h-359v1079zM480 359l81 240h397v839h480v-1438h-480v359h-478z" />
<glyph unicode="i" horiz-adv-x="688" d="M0 0v1438h480v-1198l-240 -480z" />
<glyph unicode="j" horiz-adv-x="1155" d="M0 0q157 50 305 181q175 154 175 299v958h478v-480q0 -248 -153 -477q-142 -213 -369 -347t-436 -134z" />
<glyph unicode="k" horiz-adv-x="1612" d="M-359 1198l359 240h359v-1438h-359v1079zM480 359q317 124 432 399q46 112 46 200v480h480v-480q0 -260 -275 -478q-115 -91 -205 -121l480 -359h-599z" />
<glyph unicode="l" horiz-adv-x="1385" d="M-359 1198l359 240h359v-1198h959l-479 -240h-839v1198h-359z" />
<glyph unicode="m" horiz-adv-x="2138" d="M-359 1198l359 240h551l410 -930l237 571l240 -121l-480 -958l-359 719q-95 188 -126 243q-62 105 -116 145q-124 91 -275 91h-441zM0 0v1068h359v-1068h-359zM1318 1198l240 240h359v-1438h-359v1079z" />
<glyph unicode="n" horiz-adv-x="1658" d="M-359 1198l359 240h551l410 -930q68 -153 86 -153q32 0 32 167v916h359v-1438l-359 -240l-480 959q-95 190 -126 243q-62 105 -116 145q-124 91 -275 91h-441zM0 0v1068h359v-1068h-359z" />
<glyph unicode="o" horiz-adv-x="1637" d="M0 719q0 719 719 719t719 -717q0 -721 -719 -721t-719 719zM359 719q0 -227 66 -337q84 -142 294 -142q211 0 294 140q66 110 66 339t-66 339q-82 140 -294 140q-211 0 -294 -141q-66 -111 -66 -338z" />
<glyph unicode="p" horiz-adv-x="1622" d="M-359 1198l359 240h1198q281 -64 281 -391q0 -202 -109 -399q-115 -209 -291 -289h-480q283 184 386 381q48 91 48 173q0 224 -314 285h-1078zM0 0v1079h359v-1079h-359z" />
<glyph unicode="q" horiz-adv-x="1646" d="M0 719q0 719 717 719h2q720 0 719 -719v-600l-168 -359l-191 240v719q0 229 -66 339q-83 140 -294 140t-294 -141q-66 -111 -66 -338t66 -337q84 -142 294 -142h239v-240h-239q-719 0 -719 719z" />
<glyph unicode="r" horiz-adv-x="1664" d="M-359 1198l359 240h1198q281 -64 281 -391q0 -202 -109 -399q-116 -209 -291 -289l479 -359h-600l-359 359q283 184 386 381q48 91 48 173q0 224 -314 285h-1078zM0 0v1079h359v-1079h-359z" />
<glyph unicode="s" horiz-adv-x="1899" d="M-359 0l446 384q49 -144 234 -144h458q149 0 149 69q0 108 -420 414q-170 118 -508 356h359q431 -249 727 -502q316 -270 316 -431q0 -104 -144 -146h-1617zM0 1198q0 111 64.5 175.5t175.5 64.5h1318l-240 -359l-211 119h-1107z" />
<glyph unicode="t" horiz-adv-x="1758" d="M-359 1198l359 240h1438l-120 -240h-1199l-167 -119h-192zM359 0v1079h480v-839l-240 -480z" />
<glyph unicode="u" horiz-adv-x="1645" d="M-359 1198l359 240h359v-719q0 -227 66 -337q84 -142 294 -142q169 0 209 103q30 77 30 376v719h480v-719q0 -719 -719 -719t-719 719v360z" />
<glyph unicode="v" horiz-adv-x="2052" d="M-240 1198l599 240l494 -983l465 983h360l-839 -1678q-181 406 -285 607q-187 363 -354 569q-206 255 -440 262z" />
<glyph unicode="w" horiz-adv-x="2771" d="M-240 1198l599 240l494 -983l465 983h360l-839 -1678q-181 406 -285 607q-187 363 -354 569q-206 255 -440 262zM1198 240l374 215l465 983h360l-839 -1678z" />
<glyph unicode="x" horiz-adv-x="2037" d="M-240 1198l599 240l480 -551l479 551h360l-621 -663q-39 -29 -39 -66q0 -31 39 -57q304 -311 591 -379q129 -30 269 -33l-599 -240l-479 540l-480 -540h-359l611 650q43 37 43 73t-36 54q-406 412 -858 421z" />
<glyph unicode="y" horiz-adv-x="1964" d="M-240 1198l599 240l480 -551l479 551h360l-599 -659v-539l-240 -480l-240 240v779q-294 296 -577 378q-133 39 -262 41z" />
<glyph unicode="z" horiz-adv-x="1542" d="M-359 1198l359 240h1438v-240h-1797zM0 167q0 215 444 535q308 221 635 377h359q-171 -117 -508 -356q-420 -307 -420 -414q0 -69 149 -69h659v-240h-1138q-180 46 -180 167z" />
<glyph unicode="{" horiz-adv-x="1191" d="M0 0v1079h359v-839h360v-240h-719zM0 1198v240h719v-240h-719z" />
<glyph unicode="|" horiz-adv-x="566" d="M0 -240v1678h359v-1678h-359z" />
<glyph unicode="}" horiz-adv-x="929" d="M0 0v240h359v839h360v-1079h-719zM0 1198v240h719v-240h-719z" />
<glyph unicode="~" horiz-adv-x="1548" d="M0 958q0 425 295 425q131 0 270 -84q78 -48 140 -48q139 0 134 187h240q-9 -190 -104 -329q-63 -94 -182 -93q-101 0 -228 82q-106 69 -188 69q-137 0 -137 -209h-240z" />
<glyph unicode="&#xad;" d="M0 480v239h958v-239h-958z" />
<glyph unicode="&#x2000;" horiz-adv-x="719" />
<glyph unicode="&#x2001;" horiz-adv-x="1439" />
<glyph unicode="&#x2002;" horiz-adv-x="719" />
<glyph unicode="&#x2003;" horiz-adv-x="1439" />
<glyph unicode="&#x2004;" horiz-adv-x="479" />
<glyph unicode="&#x2005;" horiz-adv-x="359" />
<glyph unicode="&#x2006;" horiz-adv-x="239" />
<glyph unicode="&#x2007;" horiz-adv-x="239" />
<glyph unicode="&#x2008;" horiz-adv-x="179" />
<glyph unicode="&#x2009;" horiz-adv-x="287" />
<glyph unicode="&#x200a;" horiz-adv-x="79" />
<glyph unicode="&#x2010;" d="M0 480v239h958v-239h-958z" />
<glyph unicode="&#x2011;" d="M0 480v239h958v-239h-958z" />
<glyph unicode="&#x2012;" d="M0 480v239h958v-239h-958z" />
<glyph unicode="&#x2013;" horiz-adv-x="1244" d="M0 480v239h1024v-239h-1024z" />
<glyph unicode="&#x2014;" horiz-adv-x="2268" d="M0 480v239h2048v-239h-2048z" />
<glyph unicode="&#x202f;" horiz-adv-x="287" />
<glyph unicode="&#x205f;" horiz-adv-x="359" />
<glyph unicode="&#xe000;" horiz-adv-x="1439" d="M0 0v1439h1439v-1439h-1439z" />
</font>
</defs>
</svg>
